<svg height="512" viewBox="0 0 152 152" width="512" xmlns="http://www.w3.org/2000/svg" xmlns:xlink="http://www.w3.org/1999/xlink"><linearGradient id="linear-gradient" gradientUnits="userSpaceOnUse" x1="56.54" x2="121.93" y1="66.54" y2="131.92"><stop offset="0" stop-color="#b33128"/><stop offset=".16" stop-color="#b33128" stop-opacity=".87"/><stop offset=".48" stop-color="#b33128" stop-opacity=".54"/><stop offset=".95" stop-color="#b33128" stop-opacity=".02"/><stop offset=".97" stop-color="#b33128" stop-opacity="0"/></linearGradient><g id="Layer_2" data-name="Layer 2"><g id="_61.airbnb" data-name="61.airbnb"><circle id="background" cx="76" cy="76" fill="#f44336" r="76"/><path id="shadow" d="m146.82 103.62a76.07 76.07 0 0 1 -58.95 47.45l-43.47-43.47c-1.77-17.52 11.42-39.7 11.42-39.7 9.86-29.9 26.36-28.9 26.36-28.9z" fill="url(#linear-gradient)"/><path id="icon" d="m76 103.36c-4.28 4.79-9.82 9.56-16.25 10.34a2.14 2.14 0 0 1 -1 .18c-9.62 1.16-17.54-6.56-17.54-16 0-7.89 10.13-25.36 20.85-47.91 2.83-5.91 5.75-11.97 13.94-11.97s11 5.79 14.45 12.92c20.37 40.6 20.37 42.84 20.37 46.9a16.35 16.35 0 0 1 -5.59 12.38c-6.58 5.7-17.59 6.15-29.2-6.84zm30-5.54c0-6.23-9.52-23-19.88-44.81-2.77-5.55-4.3-10.26-10.12-10.26-5 0-6.76 3.17-9.69 9.23-10.41 21.95-20.31 39.32-20.31 45.84 0 6.18 4.62 12.18 13.19 11.18 5.27-.64 10.14-5.23 13.66-9.23-35-45.26 41.5-45.44 6.3 0 14.31 16.23 26.85 8.3 26.85-1.95zm-38-18.91c0 4.35 2.73 10.27 7.92 17.13 5.19-6.86 7.92-12.78 7.92-17.13 0-11.32-15.84-11.32-15.84 0z" fill="#fff"/></g></g></svg>