<svg height="512" viewBox="0 0 64 64" width="512" xmlns="http://www.w3.org/2000/svg"><g id="_16-british_shorthair" data-name="16-british shorthair"><path d="m23 27h-2a4 4 0 0 1 -4-4c0-1.66 2.24-4 5-4s5 4.13 5 8z" fill="#ffc429"/><path d="m41 27h-4c0-3.87 2.24-8 5-8s5 2.34 5 4a4 4 0 0 1 -4 4z" fill="#ffc429"/><path d="m7 1 11 12c-2.16 0-4.31 1.49-6.07 4-4.93-.15-4.93-16-4.93-16z" fill="#555a66"/><path d="m46 13 11-12s0 15.85-4.93 16c-1.76-2.51-3.91-4-6.07-4z" fill="#555a66"/><path d="m36 32.32-2.59 3a1.8 1.8 0 0 1 -2.82 0l-2.59-3a1.663 1.663 0 0 1 .48-1.11 4.963 4.963 0 0 1 3.52-1.21c2.21 0 4 1.04 4 2.32z" fill="#555a66"/><path d="m36.89 41.75c-.53 1.85-2.94 3.25-4.89 3.25-2.44 0-4.47-1.4-4.91-3.25a7.922 7.922 0 0 0 4.91-3.75 7.957 7.957 0 0 0 4.89 3.75z" fill="#555a66"/><path d="m54.08 38.21 1.81 4.71-4.31 3.59a1.906 1.906 0 0 0 -.64 1.03c-.84 3.62-9.98 6.46-18.94 6.46s-18.1-2.84-18.94-6.46a1.906 1.906 0 0 0 -.64-1.03l-4.31-3.59 1.81-4.71c3.57 6.35 11.82 10.79 22.08 10.79s18.51-4.44 22.08-10.79z" fill="#555a66"/><path d="m41 30h-4l-.66-1.32a4.836 4.836 0 0 0 -4.34-2.68 4.853 4.853 0 0 0 -4.34 2.68l-.66 1.32h-4c-5 0-5 5-5 5 0 4.42 2.58 7 7 7a8.433 8.433 0 0 0 2.09-.25 7.922 7.922 0 0 0 4.91-3.75 7.957 7.957 0 0 0 4.89 3.75 9.179 9.179 0 0 0 2.11.25c4.42 0 7-2.58 7-7 0 0 0-5-5-5zm-7.59 5.32a1.8 1.8 0 0 1 -2.82 0l-2.59-3a1.663 1.663 0 0 1 .48-1.11 4.963 4.963 0 0 1 3.52-1.21c2.21 0 4 1.04 4 2.32z" fill="#afb4c8"/><path d="m27 27v3h-4c-5 0-5 5-5 5a6.383 6.383 0 0 1 -6-6c0-3.32 2.24-6 5-6a4 4 0 0 0 4 4z" fill="#bec3d2"/><path d="m43 27a4 4 0 0 0 4-4c2.76 0 5 2.68 5 6a6.383 6.383 0 0 1 -6 6s0-5-5-5h-4v-3z" fill="#bec3d2"/><path d="m11.93 17c1.76-2.51 3.91-4 6.07-4l-11-12 10.77 6.16a14.106 14.106 0 0 0 6.95 1.84h14.56a14.106 14.106 0 0 0 6.95-1.84l10.77-6.16-11 12c2.16 0 4.31 1.49 6.07 4a24.97 24.97 0 0 1 3.93 14 14.512 14.512 0 0 1 -1.92 7.21c-3.57 6.35-11.82 10.79-22.08 10.79s-18.51-4.44-22.08-10.79a14.512 14.512 0 0 1 -1.92-7.21 24.97 24.97 0 0 1 3.93-14zm15.73 11.68-.66 1.32v-3c0-3.87-2.24-8-5-8s-5 2.34-5 4c-2.76 0-5 2.68-5 6a6.383 6.383 0 0 0 6 6c0 4.42 2.58 7 7 7a8.433 8.433 0 0 0 2.09-.25c.44 1.85 2.47 3.25 4.91 3.25 1.95 0 4.36-1.4 4.89-3.25a9.179 9.179 0 0 0 2.11.25c4.42 0 7-2.58 7-7a6.383 6.383 0 0 0 6-6c0-3.32-2.24-6-5-6 0-1.66-2.24-4-5-4s-5 4.13-5 8v3l-.66-1.32a4.836 4.836 0 0 0 -4.34-2.68 4.853 4.853 0 0 0 -4.34 2.68z" fill="#8a90a0"/><path d="m59 55.01v7.99h-54v-7.99a21.6 21.6 0 0 1 1.44-7.75l1.67-4.34 4.31 3.59a1.906 1.906 0 0 1 .64 1.03c.84 3.62 9.98 6.46 18.94 6.46s18.1-2.84 18.94-6.46a1.906 1.906 0 0 1 .64-1.03l4.31-3.59 1.67 4.34a21.6 21.6 0 0 1 1.44 7.75z" fill="#707789"/><path d="m42 22a5.482 5.482 0 0 1 4.614 2.69 3.969 3.969 0 0 0 .386-1.69c0-1.66-2.24-4-5-4s-5 4.13-5 8h.429c.777-2.741 2.53-5 4.571-5z" fill="#f7991c"/><path d="m22 22a5.482 5.482 0 0 0 -4.614 2.69 3.969 3.969 0 0 1 -.386-1.69c0-1.66 2.24-4 5-4s5 4.13 5 8h-.429c-.777-2.741-2.53-5-4.571-5z" fill="#f7991c"/><path d="m35.356 33.065.644-.745c0-1.28-1.79-2.32-4-2.32a4.963 4.963 0 0 0 -3.52 1.21 1.663 1.663 0 0 0 -.48 1.11l.641.743a5.166 5.166 0 0 1 3.359-1.063 5.142 5.142 0 0 1 3.356 1.065z" fill="#636978"/><path d="m33.389 41.779a7.951 7.951 0 0 0 2.438 1.61 3.769 3.769 0 0 0 1.063-1.639 7.957 7.957 0 0 1 -4.89-3.75 7.922 7.922 0 0 1 -4.91 3.75 3.666 3.666 0 0 0 .962 1.683 7.925 7.925 0 0 0 2.569-1.665 1.99 1.99 0 0 1 2.768.011z" fill="#414952"/><path d="m37 30-.66-1.32a4.836 4.836 0 0 0 -4.34-2.68 4.853 4.853 0 0 0 -4.34 2.68l-.66 1.32 1.48 1.21a4.963 4.963 0 0 1 3.52-1.21 4.669 4.669 0 0 1 3.669 1.4 2.037 2.037 0 0 0 -.149-.19z" fill="#9da3b5"/><path d="m47 23a3.882 3.882 0 0 1 -.048.474 6.119 6.119 0 0 1 3.048 5.526 6.521 6.521 0 0 1 -4.027 5.6c.025.242.027.4.027.4a6.383 6.383 0 0 0 6-6c0-3.32-2.24-6-5-6z" fill="#9da3b5"/><path d="m16.973 23a3.882 3.882 0 0 0 .048.474 6.119 6.119 0 0 0 -3.048 5.526 6.521 6.521 0 0 0 4.027 5.6c-.025.242-.027.4-.027.4a6.383 6.383 0 0 1 -6-6c0-3.32 2.24-6 5-6z" fill="#9da3b5"/><path d="m24.72 12h14.56a14.106 14.106 0 0 0 6.95-1.84l4.989-2.854 5.781-6.306-10.77 6.16a14.106 14.106 0 0 1 -6.95 1.84h-14.56a14.106 14.106 0 0 1 -6.95-1.84l-10.77-6.16 5.781 6.306 4.989 2.854a14.106 14.106 0 0 0 6.95 1.84z" fill="#afb4c8"/><path d="m52 29a6.383 6.383 0 0 1 -6 6c0 4.42-2.58 7-7 7a9.179 9.179 0 0 1 -2.11-.25c-.53 1.85-2.94 3.25-4.89 3.25-2.44 0-4.47-1.4-4.91-3.25a8.433 8.433 0 0 1 -2.09.25c-4.42 0-7-2.58-7-7a6.383 6.383 0 0 1 -6-6 7.061 7.061 0 0 1 .257-1.891 6.494 6.494 0 0 0 -1.257 3.891 6.544 6.544 0 0 0 6.3 6c0 4.42 2.709 7 7.35 7a9.286 9.286 0 0 0 2.2-.25c.457 1.85 2.588 3.25 5.15 3.25 2.047 0 4.578-1.4 5.135-3.25a10.1 10.1 0 0 0 2.215.25c4.641 0 7.35-2.58 7.35-7a6.544 6.544 0 0 0 6.3-6 6.494 6.494 0 0 0 -1.257-3.891 7.061 7.061 0 0 1 .257 1.891z" fill="#707789"/><path d="m11.649 42.92.529-1.615a17.067 17.067 0 0 1 -2.258-3.095l-1.81 4.71 2.78 2.316z" fill="#707789"/><path d="m53.11 45.236 2.78-2.316-1.81-4.71a17.067 17.067 0 0 1 -2.258 3.095l.529 1.615z" fill="#707789"/><path d="m10.227 47.26.663-2.024-2.78-2.316-1.67 4.34a21.6 21.6 0 0 0 -1.44 7.75v7.99h4v-7.99a24.935 24.935 0 0 1 1.227-7.75z" fill="#8a90a0"/><path d="m57.56 47.26-1.67-4.34-2.78 2.316.663 2.024a24.935 24.935 0 0 1 1.227 7.75v7.99h4v-7.99a21.6 21.6 0 0 0 -1.44-7.75z" fill="#8a90a0"/><path d="m7.131 4.392 5.369 6.033a2 2 0 0 1 -.246 2.891l-2.637 2.106a2.938 2.938 0 0 0 2.313 1.578c1.76-2.51 3.91-4 6.07-4l-11-12s0 1.412.131 3.392z" fill="#333940"/><path d="m51.4 10.425 5.477-6.162c.123-1.912.123-3.263.123-3.263l-11 12c2.16 0 4.31 1.49 6.07 4a2.9 2.9 0 0 0 2.278-1.522l-2.7-2.162a2 2 0 0 1 -.248-2.891z" fill="#333940"/><path d="m30.59 35.32-2.586-3a2.985 2.985 0 0 0 .313 1.309l.286.574a3.989 3.989 0 0 1 -3.403 5.797c-.066 0-.132 0-.2 0-3.157 0-6.639-1.934-6.967-5.457a4.376 4.376 0 0 0 -.033.457c0 4.42 2.58 7 7 7a8.433 8.433 0 0 0 2.09-.25 7.922 7.922 0 0 0 4.91-3.75v-2a1.836 1.836 0 0 1 -1.41-.68z" fill="#9da3b5"/><path d="m39 40c-.067 0-.133 0-.2 0a3.989 3.989 0 0 1 -3.4-5.79l.286-.574a2.985 2.985 0 0 0 .314-1.312l-2.586 3a1.836 1.836 0 0 1 -1.414.676v2a7.78 7.78 0 0 0 2.022 2.328c.069.054.134.109.207.162l.012.008a7.747 7.747 0 0 0 2.669 1.252c.181.046.379.072.57.106a8.755 8.755 0 0 0 1.52.144c4.42 0 7-2.58 7-7a4.376 4.376 0 0 0 -.033-.457c-.328 3.523-3.81 5.457-6.967 5.457z" fill="#9da3b5"/><path d="m42 18c-3.536 0-6 4.743-6 9a1 1 0 0 0 1 1h6a5.006 5.006 0 0 0 5-5c0-2.25-2.769-5-6-5zm1 9h-6c0-3.869 2.236-8 5-8s5 2.342 5 4a4 4 0 0 1 -4 4z" fill="#23272b"/><path d="m16 23a5.006 5.006 0 0 0 5 5h6a1 1 0 0 0 1-1c0-4.257-2.464-9-6-9-3.231 0-6 2.75-6 5zm1 0c0-1.658 2.236-4 5-4s5 4.131 5 8h-6a4 4 0 0 1 -4-4z" fill="#23272b"/><g fill="#555a66"><circle cx="38.5" cy="33.5" r=".5"/><circle cx="40.5" cy="38.5" r=".5"/><circle cx="38.5" cy="37.5" r=".5"/><circle cx="36.5" cy="35.5" r=".5"/><circle cx="41.5" cy="36.5" r=".5"/><circle cx="41.5" cy="34.5" r=".5"/><circle cx="27.5" cy="36.5" r=".5"/><circle cx="25.5" cy="38.5" r=".5"/><circle cx="25.5" cy="32.5" r=".5"/><circle cx="24.5" cy="34.5" r=".5"/><circle cx="23.5" cy="36.5" r=".5"/><circle cx="22.5" cy="33.5" r=".5"/></g><path d="m24 35.25h-19a.25.25 0 0 1 0-.5h19a.25.25 0 0 1 0 .5z" fill="#eef2fa"/><path d="m6 41.25a.25.25 0 0 1 -.055-.494l18-4a.25.25 0 0 1 .11.488l-18 4a.264.264 0 0 1 -.055.006z" fill="#eef2fa"/><path d="m9 47.25a.25.25 0 0 1 -.111-.474l16-8a.254.254 0 0 1 .335.113.25.25 0 0 1 -.113.335l-16 8a.255.255 0 0 1 -.111.026z" fill="#eef2fa"/><path d="m61 35.25h-19a.25.25 0 0 1 0-.5h19a.25.25 0 0 1 0 .5z" fill="#eef2fa"/><path d="m60 41.25a.264.264 0 0 1 -.055-.006l-18-4a.25.25 0 0 1 .11-.488l18 4a.25.25 0 0 1 -.055.494z" fill="#eef2fa"/><path d="m57 47.25a.255.255 0 0 1 -.111-.026l-16-8a.25.25 0 1 1 .222-.448l16 8a.25.25 0 0 1 -.111.474z" fill="#eef2fa"/><ellipse cx="34.427" cy="31.208" fill="#f6fafd" rx=".413" ry=".574" transform="matrix(.707 -.707 .707 .707 -11.983 33.501)"/><path d="m45 24a3.982 3.982 0 0 0 -5.663-3.628 9.706 9.706 0 0 0 -2.161 4.739 3.969 3.969 0 0 0 1.204 1.889h4.62a4.015 4.015 0 0 0 .707-.071 3.979 3.979 0 0 0 1.293-2.929z" fill="#23272b"/><path d="m23 20a3.989 3.989 0 0 0 -2.707 6.929 4.015 4.015 0 0 0 .707.071h4.62a3.969 3.969 0 0 0 1.2-1.889 9.706 9.706 0 0 0 -2.161-4.739 3.967 3.967 0 0 0 -1.659-.372z" fill="#23272b"/><circle cx="41" cy="24" fill="#1a1511" r="3"/><circle cx="41" cy="24" fill="#1a1511" r="2"/><ellipse cx="41.427" cy="23.208" fill="#f6fafd" rx=".413" ry=".574" transform="matrix(.707 -.707 .707 .707 -4.272 36.107)"/><circle cx="23" cy="24" fill="#1a1511" r="3"/><circle cx="23" cy="24" fill="#1a1511" r="2"/><ellipse cx="22.573" cy="23.208" fill="#f6fafd" rx=".574" ry=".413" transform="matrix(.707 -.707 .707 .707 -9.799 22.748)"/><circle cx="44" cy="23" fill="#f6fafd" r="1"/><circle cx="20" cy="23" fill="#f6fafd" r="1"/></g></svg>